<svg width="27" height="30" viewBox="0 0 27 30" fill="none" xmlns="http://www.w3.org/2000/svg">
<path fill-rule="evenodd" clip-rule="evenodd" d="M25.7429 6.76562L14.6286 0.27236C14.3228 0.0939338 13.9759 0 13.6228 0C13.2697 0 12.9228 0.0939338 12.617 0.27236L10.3426 1.58732L23.4607 9.26667V20.7489L20.1818 22.6634L10.3426 16.9223V15.0814C10.705 14.7405 10.9567 14.2966 11.0644 13.8082C11.1721 13.3198 11.1308 12.8099 10.9459 12.3457C10.761 11.8815 10.4412 11.4849 10.0288 11.2081C9.61628 10.9314 9.13048 10.7875 8.63543 10.7954C8.14037 10.8034 7.65933 10.9628 7.25575 11.2526C6.85217 11.5425 6.54502 11.9492 6.3748 12.419C6.20459 12.8889 6.1793 13.3999 6.30229 13.8846C6.42528 14.3693 6.69076 14.8049 7.06372 15.134V18.8369L20.1844 26.4926L25.7429 23.2499C26.0488 23.0718 26.3029 22.8154 26.4796 22.5065C26.6564 22.1977 26.7497 21.8473 26.75 21.4905V8.52503C26.7497 8.16824 26.6564 7.81783 26.4796 7.50899C26.3029 7.20016 26.0488 6.94378 25.7429 6.76562Z" fill="#6D6778"/>
<path fill-rule="evenodd" clip-rule="evenodd" d="M20.1837 14.8344V11.1789L7.06036 3.52318L1.50448 6.76324C1.19889 6.94216 0.945221 7.19914 0.768918 7.50841C0.592615 7.81768 0.499875 8.16836 0.5 8.52528V21.4908C0.499805 21.8473 0.592538 22.1977 0.768872 22.5065C0.945205 22.8154 1.19892 23.0719 1.50448 23.2502L12.6162 29.7276C12.922 29.9061 13.2689 30 13.622 30C13.9751 30 14.322 29.9061 14.6278 29.7276L16.8944 28.4127L3.78148 20.7491V9.26691L7.06036 7.35234L16.8944 13.0934V14.8686C16.5309 15.2073 16.2775 15.6494 16.1676 16.1365C16.0577 16.6237 16.0965 17.1331 16.2787 17.5975C16.461 18.062 16.7783 18.4597 17.1887 18.7383C17.5991 19.0169 18.0834 19.1632 18.5778 19.1581C19.0722 19.1529 19.5534 18.9965 19.958 18.7094C20.3627 18.4223 20.6718 18.0181 20.8445 17.5499C21.0173 17.0817 21.0456 16.5717 20.9258 16.0869C20.8059 15.6022 20.5436 15.1655 20.1733 14.8344H20.1837Z" fill="#6D6778"/>
</svg>
